<svg width="512" height="512" viewBox="0 0 512 512" fill="none" xmlns="http://www.w3.org/2000/svg">
<circle cx="256" cy="256" r="256" fill="#006AFF"/>
<path d="M206.307 113.8C163.059 113.8 128 146.756 128 187.41V278.239C128 318.893 163.059 351.849 206.307 351.849H241.476V367.518C241.912 390.371 285.221 414.76 335.078 383.187C335.424 382.968 335.778 382.745 336.138 382.518C352.406 372.253 383.166 352.845 383.793 279.412C383.799 279.021 383.802 278.631 383.802 278.239V187.41C383.802 146.756 348.743 113.8 305.496 113.8H206.307Z" fill="white"/>
<ellipse cx="207.818" cy="232.806" rx="14.425" ry="13.5598" fill="#006AFF"/>
<ellipse cx="255.902" cy="232.806" rx="14.425" ry="13.5598" fill="#006AFF"/>
<ellipse cx="303.984" cy="232.806" rx="14.425" ry="13.5598" fill="#006AFF"/>
</svg>
