<?xml version="1.0" encoding="UTF-8"?>
<svg width="512" height="512" viewBox="0 0 512 512" fill="none" xmlns="http://www.w3.org/2000/svg">
<rect width="512" height="512" fill="white"/>
<path d="M244.571 300.571L274.438 259.92L244.921 219.731H262.479L283.246 248.025L304.07 219.731H321.628L292.112 259.92L321.978 300.571H304.304L283.246 271.931L262.246 300.571H244.571Z" fill="#232323"/>
<path d="M349.002 230.703V242.829H364.927V256.918H349.002V300.571H334.769V256.918H328.411V242.829H334.769V230.703C334.769 227.392 335.585 224.37 337.219 221.637C338.891 218.865 341.127 216.671 343.927 215.054C346.727 213.399 349.819 212.571 353.202 212.571C355.652 212.571 358.082 213.072 360.493 214.073C362.904 215.073 365.043 216.613 366.91 218.692L356.643 228.624C356.293 227.969 355.788 227.488 355.127 227.18C354.505 226.834 353.863 226.661 353.202 226.661C352.074 226.661 351.082 227.065 350.227 227.873C349.41 228.643 349.002 229.586 349.002 230.703Z" fill="#232323"/>
<path d="M374.078 242.829H388.312V300.571H374.078V242.829ZM381.253 234.225C379.192 234.225 377.442 233.551 376.003 232.204C374.565 230.818 373.845 229.086 373.845 227.007C373.845 224.967 374.565 223.254 376.003 221.868C377.442 220.482 379.192 219.789 381.253 219.789C383.314 219.789 385.045 220.482 386.445 221.868C387.884 223.254 388.603 224.967 388.603 227.007C388.603 229.086 387.884 230.818 386.445 232.204C385.045 233.551 383.314 234.225 381.253 234.225Z" fill="#232323"/>
<path d="M443.91 300.571H425.535L404.302 242.771H419.468L434.751 284.346L449.976 242.771H465.143L443.91 300.571Z" fill="#232323"/>
<path d="M96.9796 163.428C69.9289 163.428 48 184.88 48 211.341V270.461C48 296.922 69.9289 318.373 96.9796 318.373H118.977V328.572C119.25 343.446 146.339 359.321 177.524 338.771C177.74 338.628 177.961 338.483 178.187 338.335C188.362 331.654 207.602 319.022 207.994 271.224C207.998 270.97 208 270.716 208 270.461V211.341C208 184.88 186.071 163.428 159.02 163.428H96.9796Z" fill="#2A83FF"/>
<mask id="mask0_104_493" style="mask-type:alpha" maskUnits="userSpaceOnUse" x="48" y="163" width="160" height="186">
<path d="M96.9796 163.428C69.9289 163.428 48 184.88 48 211.341V270.461C48 296.922 69.9289 318.373 96.9796 318.373H118.977V328.572C119.25 343.446 146.339 359.321 177.524 338.771C177.74 338.628 177.961 338.483 178.187 338.335C188.362 331.654 207.602 319.022 207.994 271.224C207.998 270.97 208 270.716 208 270.461V211.341C208 184.88 186.071 163.428 159.02 163.428H96.9796Z" fill="#8958CC"/>
</mask>
<g mask="url(#mask0_104_493)">
<ellipse cx="99.9298" cy="270.517" rx="109.674" ry="107.088" fill="#1B7AFF"/>
<ellipse cx="58.4265" cy="305.428" rx="113.083" ry="110.619" fill="#1174FF"/>
<ellipse cx="58.025" cy="304.644" rx="63.7594" ry="62.3701" fill="#006AFF"/>
</g>
<ellipse cx="97.9254" cy="240.901" rx="9.02256" ry="8.82596" fill="white"/>
<ellipse cx="128" cy="240.901" rx="9.02256" ry="8.82596" fill="white"/>
<ellipse cx="158.076" cy="240.901" rx="9.02256" ry="8.82596" fill="white"/>
</svg>
