<?xml version="1.0" encoding="UTF-8"?>
<svg width="1154" height="512" viewBox="0 0 1154 512" fill="none" xmlns="http://www.w3.org/2000/svg">
<path d="M543.605 379.259L626.198 266.842L544.573 155.702H593.128L650.556 233.947L708.146 155.702H756.701L675.076 266.842L757.669 379.259H708.791L650.556 300.056L592.483 379.259H543.605Z" fill="#232323"/>
<path d="M832.401 186.042V219.575H876.439V258.538H832.401V379.259H793.04V258.538H775.457V219.575H793.04V186.042C793.04 176.887 795.298 168.53 799.815 160.971C804.439 153.307 810.623 147.239 818.366 142.768C826.109 138.19 834.659 135.901 844.015 135.901C850.79 135.901 857.512 137.285 864.18 140.053C870.847 142.821 876.762 147.079 881.924 152.828L853.533 180.293C852.565 178.483 851.167 177.153 849.339 176.301C847.618 175.343 845.843 174.864 844.015 174.864C840.897 174.864 838.154 175.982 835.788 178.217C833.53 180.346 832.401 182.955 832.401 186.042Z" fill="#232323"/>
<path d="M901.748 219.575H941.109V379.259H901.748V219.575ZM921.59 195.783C915.89 195.783 911.051 193.92 907.072 190.194C903.092 186.361 901.103 181.571 901.103 175.822C901.103 170.18 903.092 165.443 907.072 161.61C911.051 157.778 915.89 155.862 921.59 155.862C927.29 155.862 932.075 157.778 935.947 161.61C939.926 165.443 941.916 170.18 941.916 175.822C941.916 181.571 939.926 186.361 935.947 190.194C932.075 193.92 927.29 195.783 921.59 195.783Z" fill="#232323"/>
<path d="M1094.86 379.259H1044.05L985.329 219.416H1027.27L1069.54 334.388L1111.64 219.416H1153.58L1094.86 379.259Z" fill="#232323"/>
<path d="M135.45 0C60.6429 0 0 59.3215 0 132.498V295.99C0 369.167 60.6429 428.489 135.45 428.489H196.283V456.693C197.036 497.828 271.949 541.728 358.189 484.898C358.788 484.503 359.399 484.102 360.023 483.692C388.162 465.216 441.368 430.282 442.452 298.101C442.464 297.399 442.469 296.695 442.469 295.99V132.498C442.469 59.3215 381.826 0 307.019 0H135.45Z" fill="#2A83FF"/>
<mask id="mask0_9_1066" style="mask-type:alpha" maskUnits="userSpaceOnUse" x="0" y="0" width="443" height="512">
<path d="M135.45 0C60.6429 0 0 59.3215 0 132.498V295.99C0 369.167 60.6429 428.489 135.45 428.489H196.283V456.693C197.036 497.828 271.949 541.728 358.189 484.898C358.788 484.503 359.399 484.102 360.023 483.692C388.162 465.216 441.368 430.282 442.452 298.101C442.464 297.399 442.469 296.695 442.469 295.99V132.498C442.469 59.3215 381.826 0 307.019 0H135.45Z" fill="#8958CC"/>
</mask>
<g mask="url(#mask0_9_1066)">
<ellipse cx="143.608" cy="296.145" rx="303.297" ry="296.145" fill="#1B7AFF"/>
<ellipse cx="28.8336" cy="392.69" rx="312.723" ry="305.908" fill="#1174FF"/>
<ellipse cx="27.7236" cy="390.522" rx="176.322" ry="172.48" fill="#006AFF"/>
</g>
<ellipse cx="138.065" cy="214.245" rx="24.9513" ry="24.4076" fill="white"/>
<ellipse cx="221.235" cy="214.245" rx="24.9513" ry="24.4076" fill="white"/>
<ellipse cx="304.407" cy="214.245" rx="24.9513" ry="24.4076" fill="white"/>
</svg>
